<svg xmlns="http://www.w3.org/2000/svg"><svg xmlns="http://www.w3.org/2000/svg" width="306" height="306" fill="none" style="z-index: 2; position: absolute; pointer-events: none;"><path fill="#fff" d="M236.1 278.4c-.7.5-1.5 1-2.2 1.5-.8.5-1.5 1-2.3 1.4-.7.4-1.3.8-2 1.2-.1.1-.2.1-.3.2-2.3 1.4-4.7 2.7-7.1 3.9-.7.4-1.5.8-2.2 1.1 0 0-.1.1-.2.1l-2.4 1.2c-1.6.8-3.3 1.5-4.9 2.2-.8.4-1.7.7-2.5 1-.8.3-1.7.7-2.5 1-.8.3-1.7.7-2.5 1h-.1c-.8.3-1.7.6-2.5.9-1.8.6-3.7 1.2-5.5 1.8-.6.2-1.3.4-1.9.6-1.9.6-3.8 1.1-5.7 1.5-.7.2-1.4.3-2.2.5-1.8.4-3.7.8-5.5 1.2-.4.1-.7.1-1.1.2-.6.1-1.3.2-1.9.3-.9.1-1.7.3-2.6.4-.4.1-.8.1-1.2.2-.5.1-1.1.2-1.7.2-1.6.2-3.3.4-4.9.6-.5.1-1.1.1-1.6.2h-.1c-.7.1-1.4.1-2.1.2-.7.1-1.4.1-2.1.1-.4 0-.9.1-1.3.1-.8 0-1.5.1-2.2.1-1 0-1.9.1-2.9.1h-5c-42.2-.6-80.1-18.5-107.2-46.9 0 0 0-.1-.1-.1-3-2.7-.4-17.1 11.7-26.2 15.2-11.5 51.6-18.7 51.6-18.7s14.1-2.3 66.4 8.6c30.6 6.4 53.9 15.7 66.9 40.9 2.7 5.2 5.4 13.2-4.1 17.4Z"></path><path fill="#000" d="M173.6 219c19.2 3.9 39.7 8.1 55.5 20.8 5.3 4.3 8.8 10.6 11.7 16.7 1.4 3 2.8 6.1 3.9 9.4.6 2.2 1.5 4.7 1 7.3-.1.7-.7 1.6-1.2 2.1-2.3 2.3-4.8 3.7-7.3 5.5-14.7 10.2-31.6 17.4-49.1 21.2-39 8.5-81.2 1.9-115.5-18.6-11.4-6.9-21.9-15.3-30.9-25.2-1-1.2-1-3.2-1-4.5.1-3 .9-5.9 1.9-8.6 2.4-6.2 5.5-12.4 10.8-16.7 3.8-2.6 7.9-4.8 12.1-6.6 13.2-5.6 27.1-9.5 41.4-11.1 1.2-.1 1.4 1.6.2 1.8-13.7 2.8-27.3 7-40 12.7-4.6 2.3-9.5 4.3-13.2 7.9-3.5 3.8-6 8.5-8 13.3-1.3 2.9-2.2 7.5-1.8 9.8 6.3 7.5 13.7 14.1 21.7 19.8 43.8 30.6 110.3 32.6 156.9 7.1 4.2-2.3 8.3-4.9 12.2-7.6 1.9-1.3 3.9-2.4 5.4-3.9.1-.1 0 0 0 .1s-.1.2-.1.2c.1-1.2-.3-2.8-.8-4.4-1.8-5.8-4.7-11.9-7.8-17.2-4.9-7.9-13.2-12.9-21.6-16.9-5.8-2.7-11.9-4.8-18.1-6.8-6.2-2-12.5-3.7-18.8-5.2-1.6-.4-1.1-2.7.5-2.4Z"></path></svg><svg xmlns="http://www.w3.org/2000/svg" width="306" height="344" fill="none" style="z-index: 3; position: absolute; pointer-events: none;"><path fill="#000" d="M269.3 340.4H16.4s14.9-31.4 21.5-67.2c4.6-24.8 8-39.3 20.9-47.3 9.1-5.6 34.7-13.7 52.9-16.3 7.4-1 22.1-2.1 34.8-1.1 9.6 1.2 29.4 6.8 37 8.9 11.4 3.2 36.1 12.7 47 22.7 4.3 4 14.5 24 21.1 53 7.6 33 17.7 47.3 17.7 47.3Z"></path><path fill="#000" d="M271.6 341.6c-73.9.7-182.1 2.2-255.1 1.9-2.2.1-3.8-2.4-2.8-4.4 9.6-21.2 16.9-43.8 21.4-66.7 3.7-17.9 6-40.5 24.1-49.9 8.9-4.5 18.3-7.5 27.8-10.3 16.7-4.9 34.4-7.3 51.8-6.8 2.7.1 5.5.2 8.3.4 6 .9 11.9 2.4 17.7 3.9 5.2 1.3 10.5 2.8 15.6 4.3.6.3.8 1.5 1.1 2.1.4.7.9.6 1.6.3.3-.1.6-.3.9-.2.7.1 1.7.5 2.4.7 15.5 5 31.1 10.9 44.2 20.8 1.9 1.4 3.4 3.3 4.6 5.3 2.4 3.8 4.4 7.7 6.2 11.7 5.4 11.9 9.4 24.4 12.4 37.1 3.9 15.9 8.5 31.9 16.8 46.1l.4.6.2.3c.6.5.8 2 .4 2.8Zm-4.6-2.4c-.5.6-.4 1.9 0 2.4l-.1-.2-.2-.4c-4.6-7.2-8-15.2-10.9-23.1-3-8.1-5.3-16.7-7.3-25.1-2.9-12.4-6.7-24.6-11.8-36.2-2.2-4.9-4.4-9.8-7.7-13.9-1.9-1.9-4.1-3.5-6.4-5-11.5-7.4-24.4-12.8-37.4-17-.5-.2-1.7-.5-2.3-.7-.6-.2-.6-1.9-1-2.3-.9-.8-1.9 1.4-2.8 1.2-5.1-1.4-10.4-2.8-15.6-4-6.2-1.4-12.3-3-18.5-3.5-27.4-1.8-55.1 4-80.3 14.9-12.2 5-16.8 16.3-19.7 28.4-2.6 10.2-4.1 21.3-6.5 31.6-4.6 19.1-11 37.5-19.1 55.5l-2.8-4.4c71-.2 178.4.9 250.4 1.8Z"></path></svg><svg xmlns="http://www.w3.org/2000/svg" width="306" height="306" fill="none" style="z-index: 4; position: absolute; pointer-events: none;"><path fill="#fff" d="M182.999 245.6c-2.1 10.3-15.7 16.5-38.6 7.2-23.8-9.6-34.1-32.5-36.7-39.3 14.1-26.4 4.3-44.7 4.3-44.7 32.5-2.8 60.9 35.2 60.9 35.2l4.4 18.8c.4 1.6 1.2 3 2.4 4 2.1 3.7 4.6 12.2 3.3 18.8Z"></path><path fill="#000" d="M107.2 213.8c1.9-2.9 3.1-6.3 3.9-9.6 1.5-6.9 2-13.9 2.1-20.9v-2.6c-.3-2.6-1.2-5.3-2.2-7.7-1.3-3.2 3.4-5.2 4.9-2 .2.4.2 1.1.2 1.5.3 13.6.9 31.1-7.7 42.4-.6.6-1.8-.3-1.2-1.1ZM174 203.8c1.5.9 2 2.1 2.2 3.3.6 2.4.4 5 1 7.5.5 2.4 2 4.7 2.4 7.2.5 2.6 2 8.1 2.6 10.8.2.6-.2 1.3-.9 1.4-.4.1-.7 0-1-.2-1.3-1.1-1.9-2.2-2.7-3.6-1.3-2.4-2.2-4.6-3-7.3-.7-2.4-.4-5-1-7.5-.5-2.4-1.9-4.7-2.4-7.2-.3-1.2-.4-2.5.5-4 .6-.6 1.6-.8 2.3-.4Z"></path><path fill="#000" d="M181.2 230.2c-19.1-1-34.7-7-49.9-34.1 12.8 11.3 27.9 15.6 43.8 17.6l2.1 9.2c.4 1.6 2.8 6.3 4 7.3Z"></path><path fill="#000" d="M180.4 226.5c3.4 6.4 5.4 14.4 3.3 21.5-1.6 5-6.2 8.7-11.2 10.1-11.6 3.1-25-1.8-35.3-7.3-12.7-7.1-22.1-19-28.1-32-.4-1 1-1.8 1.6-.8 2.1 4.2 4.5 8.3 7.2 12 2.7 3.8 5.8 7.3 9.3 10.4 10.2 9.2 24 14.9 37.8 14.9 14.2-.4 19.6-7.9 16.3-21.7-.5-2.2-1.3-4.5-2.4-6.4-.6-.8.9-1.7 1.5-.7Z"></path><path fill="#fff" d="M219.1 106.4c1.8 8.4 2.7 15.2-2.2 37.6-4.8 22.3 6.9 26.9-20.8 62.6-11.3 14.6-38.7 10.5-60.9-4.6-7.5-5.1-10.7-18.2-16.3-27.5-4.4-7.3-6.4.3-12.2-6-7.9-8.6-17.4-25.9-12.7-56.5 7.6-49.6 46.9-55.4 76-49.9 29.3 5.6 44.3 22.2 49.1 44.3Z"></path><path fill="#000" d="M111.7 177.4c-2.3-3.9-5.3-7.3-8.1-10.9-2.7-3.7-4.9-7.8-6.7-12C85 125.3 89.6 84.2 118.8 67c12.1-7 26.7-8.7 40.3-7.6 29.1 2.1 55.8 15.5 62.1 46.3 3.4 13.6-1.2 27.6-3.8 40.9-1.2 6.6-.2 13.4-.3 20.2-.1 6.9-2 13.8-4.6 20.2-1.6 4.4-4.4 8.3-7.3 11.9-4.8 5.8-9.6 11.7-15.7 16.2-1.4 1-3.9 1.5-5.6 1.7-4.7.7-9.3.9-14 .6-18.4-.8-38.1-9.7-45.5-27.5-.3-.7.7-1.2 1.1-.6 9.6 15.2 27.2 22.7 44.7 23.7 5.4.3 10.9.2 16.2-.9 2.6-1.3 4.9-3.6 7.1-5.7 5.4-5.4 10.9-11.2 14.8-17.8 4.7-8.9 7.3-18.6 6.5-28.7-.2-4.5-.3-9.2.6-13.7.8-4.5 1.8-8.8 2.4-13.4.6-4.4.9-8.9.9-13.3-.5-12.9-4.7-26.2-12.9-36.2-18.1-22.5-60.9-28.4-85-13-15.2 9.4-22.3 27-24.6 44.1-3.5 20.5-2.5 40.7 13.8 55.6l4.8 5c1.9 2.2-1.5 4.8-3.1 2.4Z"></path><path fill="#fff" d="M123.499 145.6s-3.1-15-17.7-13.2c-12.6 1.6-17 31.8 11.6 40.2"></path><path fill="#000" d="M116.1 159.5c-2.3-1.3-3.9-3.5-4-6.2.1-2 .4-4.3-.1-6.3-.3-1.9-2.3-2.4-3.8-2.3-1.6.3-2.6 2.3-2.9 3.9 0 .1-.1.4-.1.5-.1.5-.9.5-1.1 0-1.3-3.9 1.6-8.2 5.8-7.7 5.9.4 6.7 6.6 5.6 11.3-.6 2 .2 3.8 1.3 5.5l.2.3c.5.6-.3 1.4-.9 1ZM196.1 135c1.5 7.1 4.3 13.7 7.8 19.9 3.1 7.6-4.9 14.8-12 14.5-.8 0-.9-1.1-.2-1.3 4.5-1.4 8.6-4.4 9.3-9 .3-1.4-.1-2.6-.8-3.8-3.3-6.2-5.3-13.3-4.8-20.3 0-.5.7-.5.7 0Z"></path><path fill="#000" d="M123 145.7c-2.3-5.9-7.3-11.5-14-11.4-.6-.1-1.6.1-2.2.1-1.7.1-3.1.7-4.4 1.9-6.4 6.4-5.3 17.7-.1 24.8 1.8 2.5 4.1 4.7 6.7 6.5 2.6 1.8 5.5 3.2 8.6 4.4.7.2.4 1.3-.3 1.2-6.7-1.4-13.1-4.7-17.5-10.2-6.8-8.2-8.2-21.9-.1-29.9 1.8-1.6 4.3-2.8 6.8-2.8.8 0 2-.2 2.8 0 4.2.2 8.2 2.3 10.8 5.6 2.3 2.8 3.6 6.2 4 9.6 0 .6-.9.8-1.1.2Z"></path></svg><svg xmlns="http://www.w3.org/2000/svg" width="306" height="306" fill="none" style="z-index: 5; position: absolute; pointer-events: none;"><path fill="#000" d="M227.2 91.1c6.8-5.9 16.8-14.8 6.5-27.2-10.3-12.4-29.3-7.6-29.3-7.6s4-11.4-7.1-15.5c-13.4-4.9-51.4 9.9-51.4 9.9-2.8-.1-5.5-.2-8-.2-32.8-.7-42.3 20-42.7 38.6 0 0-11.1 3.7-13.9 21.4-.9 5.7-1.8 13 .4 21.8 5.9 24 21.8 40.7 31.9 49.2 3.8-2.8-2.9-6.7-2.4-11.3-21.7-10.6-17-36.3-5.4-37.8 8.9-1.1 13.6 4.1 15.8 8.3.9 1.2-11.1-65.7 58.1-43.8 13.7 4.3 27.8 8.1 37.4 1.2 1.1 2.1 1.8 4.6 2 8.3 0 0 16.7-6.5 14.2-13.3-.8-2.3-6.1-2-6.1-2Z"></path></svg><svg xmlns="http://www.w3.org/2000/svg" width="306" height="306" fill="none" style="z-index: 6; position: absolute; pointer-events: none;"><path fill="#000" d="M174.2 122c2.2-.2 3.3-2.8 2.1-4.8-.7-1-1.6-1.9-2.9-2.4-3.8-1.2-16.2 1.5-21.6 7.7-4.8 5.7 12.4.4 22.4-.5ZM200.6 123.6c-1.7-.5-2.2-3-.8-4.6.7-.8 1.7-1.5 2.8-1.7 3.4-.6 11.2 2.5 13.4 8.4 2 5.1-7.3-.1-15.4-2.1ZM158.8 145.2c-2.4-.1-4.2-2.1-4-4.5l.1-2.8c.1-2.4 2.1-4.2 4.5-4 2.4.1 4.2 2.1 4 4.5l-.1 2.8c-.1 2.3-2.1 4.1-4.5 4ZM200.9 146.7c-2.2-.1-3.9-2-3.8-4.2l.1-2.6c.1-2.2 2-3.9 4.2-3.8 2.2.1 3.9 2 3.8 4.2l-.1 2.6c-.1 2.2-2 3.9-4.2 3.8Z"></path><path fill="#000" d="M167.8 139.8c-3.3-2.2-6.9-3.7-10.9-2.9-1.3.2-2.6.6-3.4 1.5-.3.4-1 .3-1-.3.1-2 1.8-3.3 3.4-4.1 3.1-1.6 7.4-1.3 10.2.8 1 .6 4.4 4.3 2.6 5.1-.4.2-.6.1-.9-.1ZM196.399 140.3c0-4.2 5.2-5.7 8.4-4.2 1.8.8 3.1 2.4 3.6 4.3.2.6-.7 1.1-1.1.6-1.7-2-4.6-3-6.9-1.8-.7.4-.8.7-1 1.1 0 2-2.9 1.9-3 0Z"></path></svg><svg xmlns="http://www.w3.org/2000/svg" width="306" height="306" fill="none" style="z-index: 7; position: absolute; pointer-events: none;"><path fill="#000" d="M188.5 179.4c-6.4 6.1-18.5 1.2-21.7-6.2-.4-.9.6-1.7 1.4-1.3 1.7.9 3.2 1.8 4.8 2.5 4.6 2.1 9.4 3.8 14.5 3.3 1-.2 1.7 1 1 1.7Z"></path></svg><svg xmlns="http://www.w3.org/2000/svg" width="306" height="306" fill="none" style="z-index: 8; position: absolute; pointer-events: none;"></svg><svg xmlns="http://www.w3.org/2000/svg" width="306" height="306" fill="none" style="z-index: 9; position: absolute; pointer-events: none;"></svg></svg>